<?xml version="1.0" encoding="UTF-8" standalone="no"?>
<!-- Created with Inkscape (http://www.inkscape.org/) -->

<svg
   version="1.1"
   id="svg1"
   width="118.06055"
   height="167.3562"
   viewBox="0 0 118.06055 167.3562"
   sodipodi:docname="favicon.svg"
   inkscape:version="1.4.2 (f4327f4, 2025-05-13)"
   xmlns:inkscape="http://www.inkscape.org/namespaces/inkscape"
   xmlns:sodipodi="http://sodipodi.sourceforge.net/DTD/sodipodi-0.dtd"
   xmlns="http://www.w3.org/2000/svg"
   xmlns:svg="http://www.w3.org/2000/svg">
  <defs
     id="defs1">
    <clipPath
       clipPathUnits="userSpaceOnUse"
       id="clipPath2">
      <path
         d="M 0,1080 H 1920 V 0 H 0 Z"
         transform="translate(-1736.6415,-222.31223)"
         id="path2" />
    </clipPath>
    <clipPath
       clipPathUnits="userSpaceOnUse"
       id="clipPath16">
      <path
         d="M 0,1080 H 1920 V 0 H 0 Z"
         transform="translate(-1776.7308,-314.97638)"
         id="path16" />
    </clipPath>
    <clipPath
       clipPathUnits="userSpaceOnUse"
       id="clipPath18">
      <path
         d="M 0,1080 H 1920 V 0 H 0 Z"
         transform="translate(-1712.4133,-222.31223)"
         id="path18" />
    </clipPath>
    <clipPath
       clipPathUnits="userSpaceOnUse"
       id="clipPath20">
      <path
         d="M 0,1080 H 1920 V 0 H 0 Z"
         transform="translate(-1734.897,-326.58053)"
         id="path20" />
    </clipPath>
  </defs>
  <sodipodi:namedview
     id="namedview1"
     pagecolor="#ffffff"
     bordercolor="#000000"
     borderopacity="0.25"
     inkscape:showpageshadow="2"
     inkscape:pageopacity="0.0"
     inkscape:pagecheckerboard="0"
     inkscape:deskcolor="#d1d1d1"
     inkscape:zoom="2.4349262"
     inkscape:cx="70.022656"
     inkscape:cy="96.306821"
     inkscape:window-width="1920"
     inkscape:window-height="1017"
     inkscape:window-x="-8"
     inkscape:window-y="-8"
     inkscape:window-maximized="1"
     inkscape:current-layer="layer-MC0">
    <inkscape:page
       x="0"
       y="0"
       width="118.06055"
       height="167.3562"
       id="page2"
       margin="0"
       bleed="0" />
  </sodipodi:namedview>
  <g
     id="layer-MC0"
     inkscape:groupmode="layer"
     inkscape:label="Capa 1"
     transform="translate(-2250.9143,-981.65418)">
    <path
       id="path1"
       d="m 0,0 c 0,-2.248 -10.847,-4.07 -24.228,-4.07 -13.381,0 -24.228,1.822 -24.228,4.07 0,2.248 10.847,4.07 24.228,4.07 C -10.847,4.07 0,2.248 0,0"
       style="fill:#cccccc;fill-opacity:1;fill-rule:nonzero;stroke:none"
       transform="matrix(1.118427,0,0,-1.118427,2313.4594,1131.8581)"
       clip-path="url(#clipPath2)" />
    <path
       id="path15"
       d="m 0,0 c 0,-15.896 -12.886,-28.783 -28.783,-28.783 -15.896,0 -28.783,12.887 -28.783,28.783 0,15.896 12.887,28.783 28.783,28.783 C -12.886,28.783 0,15.896 0,0"
       style="fill:#84000a;fill-opacity:1;fill-rule:nonzero;stroke:none"
       transform="matrix(1.118427,0,0,-1.118427,2358.2964,1028.22)"
       clip-path="url(#clipPath16)" />
    <path
       id="path17"
       d="M 0,0 31.69,66.579 20.061,70.94 Z"
       style="fill:#84000a;fill-opacity:1;fill-rule:nonzero;stroke:none"
       transform="matrix(1.118427,0,0,-1.118427,2286.362,1131.8581)"
       clip-path="url(#clipPath18)" />
    <path
       id="path19"
       d="M 0,0 C 4.748,7.046 10.919,8.952 18.413,5.427"
       style="fill:none;stroke:#ffffff;stroke-width:3.662;stroke-linecap:round;stroke-linejoin:miter;stroke-miterlimit:10;stroke-dasharray:none;stroke-opacity:1"
       transform="matrix(1.118427,0,0,-1.118427,2311.5084,1015.2416)"
       clip-path="url(#clipPath20)" />
  </g>
</svg>
