<?xml version="1.0" encoding="UTF-8" standalone="no"?>
<!-- Created with Inkscape (http://www.inkscape.org/) -->

<svg
   version="1.1"
   id="svg1"
   width="698.31885"
   height="605.17413"
   viewBox="0 0 698.31885 605.17413"
   sodipodi:docname="marsol - marca .pdf"
   xmlns:inkscape="http://www.inkscape.org/namespaces/inkscape"
   xmlns:sodipodi="http://sodipodi.sourceforge.net/DTD/sodipodi-0.dtd"
   xmlns="http://www.w3.org/2000/svg"
   xmlns:svg="http://www.w3.org/2000/svg">
  <defs
     id="defs1">
    <clipPath
       clipPathUnits="userSpaceOnUse"
       id="clipPath63">
      <path
         d="M 0,1080 H 1920 V 0 H 0 Z"
         transform="translate(-1652.2296,-436.53081)"
         id="path63" />
    </clipPath>
    <clipPath
       clipPathUnits="userSpaceOnUse"
       id="clipPath65">
      <path
         d="M 0,1080 H 1920 V 0 H 0 Z"
         transform="translate(-1320.0585,-645.42551)"
         id="path65" />
    </clipPath>
    <clipPath
       clipPathUnits="userSpaceOnUse"
       id="clipPath67">
      <path
         d="M 0,1080 H 1920 V 0 H 0 Z"
         transform="translate(-1466.4349,-687.94042)"
         id="path67" />
    </clipPath>
    <clipPath
       clipPathUnits="userSpaceOnUse"
       id="clipPath69">
      <path
         d="M 0,1080 H 1920 V 0 H 0 Z"
         transform="translate(-1629.306,-730.66692)"
         id="path69" />
    </clipPath>
    <clipPath
       clipPathUnits="userSpaceOnUse"
       id="clipPath71">
      <path
         d="M 0,1080 H 1920 V 0 H 0 Z"
         transform="translate(-1190.1871,-444.45851)"
         id="path71" />
    </clipPath>
    <clipPath
       clipPathUnits="userSpaceOnUse"
       id="clipPath73">
      <path
         d="M 0,1080 H 1920 V 0 H 0 Z"
         transform="translate(-1395.1503,-452.28461)"
         id="path73" />
    </clipPath>
    <clipPath
       clipPathUnits="userSpaceOnUse"
       id="clipPath75">
      <path
         d="M 0,1080 H 1920 V 0 H 0 Z"
         transform="translate(-1548.0801,-434.51731)"
         id="path75" />
    </clipPath>
    <clipPath
       clipPathUnits="userSpaceOnUse"
       id="clipPath77">
      <path
         d="M 0,1080 H 1920 V 0 H 0 Z"
         transform="translate(-1666.2295,-586.91051)"
         id="path77" />
    </clipPath>
    <clipPath
       clipPathUnits="userSpaceOnUse"
       id="clipPath79">
      <path
         d="M 0,1080 H 1920 V 0 H 0 Z"
         transform="translate(-1650.0675,-563.37172)"
         id="path79" />
    </clipPath>
    <clipPath
       clipPathUnits="userSpaceOnUse"
       id="clipPath81">
      <path
         d="M 0,1080 H 1920 V 0 H 0 Z"
         transform="translate(-1189.9851,-349.12151)"
         id="path81" />
    </clipPath>
    <clipPath
       clipPathUnits="userSpaceOnUse"
       id="clipPath83">
      <path
         d="M 0,1080 H 1920 V 0 H 0 Z"
         transform="translate(-1237.968,-349.19271)"
         id="path83" />
    </clipPath>
    <clipPath
       clipPathUnits="userSpaceOnUse"
       id="clipPath85">
      <path
         d="M 0,1080 H 1920 V 0 H 0 Z"
         transform="translate(-1317.3708,-348.33581)"
         id="path85" />
    </clipPath>
    <clipPath
       clipPathUnits="userSpaceOnUse"
       id="clipPath87">
      <path
         d="M 0,1080 H 1920 V 0 H 0 Z"
         transform="translate(-1346.8566,-349.12151)"
         id="path87" />
    </clipPath>
    <clipPath
       clipPathUnits="userSpaceOnUse"
       id="clipPath89">
      <path
         d="M 0,1080 H 1920 V 0 H 0 Z"
         transform="translate(-1395.1965,-349.83531)"
         id="path89" />
    </clipPath>
    <clipPath
       clipPathUnits="userSpaceOnUse"
       id="clipPath91">
      <path
         d="M 0,1080 H 1920 V 0 H 0 Z"
         transform="translate(-1416.2589,-322.34221)"
         id="path91" />
    </clipPath>
    <clipPath
       clipPathUnits="userSpaceOnUse"
       id="clipPath93">
      <path
         d="M 0,1080 H 1920 V 0 H 0 Z"
         transform="translate(-1466.8839,-350.12101)"
         id="path93" />
    </clipPath>
    <clipPath
       clipPathUnits="userSpaceOnUse"
       id="clipPath95">
      <path
         d="M 0,1080 H 1920 V 0 H 0 Z"
         transform="translate(-1522.3644,-343.05141)"
         id="path95" />
    </clipPath>
    <clipPath
       clipPathUnits="userSpaceOnUse"
       id="clipPath97">
      <path
         d="M 0,1080 H 1920 V 0 H 0 Z"
         transform="translate(-1576.4157,-350.12101)"
         id="path97" />
    </clipPath>
    <clipPath
       clipPathUnits="userSpaceOnUse"
       id="clipPath99">
      <path
         d="M 0,1080 H 1920 V 0 H 0 Z"
         transform="translate(-1628.1111,-322.34221)"
         id="path99" />
    </clipPath>
    <clipPath
       clipPathUnits="userSpaceOnUse"
       id="clipPath101">
      <path
         d="M 0,1080 H 1920 V 0 H 0 Z"
         transform="translate(-1693.5183,-335.76751)"
         id="path101" />
    </clipPath>
  </defs>
  <sodipodi:namedview
     id="namedview1"
     pagecolor="#ffffff"
     bordercolor="#000000"
     borderopacity="0.25"
     inkscape:showpageshadow="2"
     inkscape:pageopacity="0.0"
     inkscape:pagecheckerboard="0"
     inkscape:deskcolor="#d1d1d1">
    <inkscape:page
       x="0"
       y="0"
       width="698.31885"
       height="605.17413"
       id="page2"
       margin="0"
       bleed="0" />
  </sodipodi:namedview>
  <g
     id="layer-MC0"
     inkscape:groupmode="layer"
     inkscape:label="Capa 1"
     transform="translate(-4150.8403,-405.9888)">
    <path
       id="path62"
       d="m 0,0 c 0,-2.784 -13.431,-5.04 -30,-5.04 -16.568,0 -30,2.256 -30,5.04 0,2.784 13.432,5.04 30,5.04 C -13.431,5.04 0,2.784 0,0"
       style="fill:#f2f2f2;fill-opacity:1;fill-rule:nonzero;stroke:none"
       transform="matrix(1.3333333,0,0,-1.3333333,4782.9727,857.95893)"
       clip-path="url(#clipPath63)" />
    <path
       id="path64"
       d="M 0,0 C 0,15.018 1.692,32.362 1.692,53.302 1.692,69.166 1.481,82.28 1.27,98.99 -12.056,72.55 -27.497,40.188 -39.553,19.671 -43.572,12.479 -47.168,9.095 -52.879,9.095 c -6.134,0 -9.941,2.961 -13.326,9.095 -16.71,30.247 -28.766,53.303 -42.938,84.607 -0.211,-12.691 -0.423,-24.536 -0.423,-37.227 0,-24.113 0.846,-41.034 0.846,-61.763 0,-9.095 -3.807,-14.594 -12.268,-14.594 -8.46,0 -12.479,4.653 -12.479,13.537 0,20.517 1.269,37.65 1.269,59.013 0,16.921 -0.635,35.112 -0.635,52.668 0,9.518 6.134,15.017 17.133,15.017 10.576,0 16.71,-2.749 21.152,-12.268 14.806,-31.727 24.959,-50.129 41.881,-77.203 16.709,28.343 27.92,49.283 42.303,76.569 5.076,9.518 9.73,12.48 20.305,12.48 11.634,0 16.499,-6.135 16.498,-16.711 0,-19.882 -0.845,-36.804 -0.845,-59.859 0,-15.441 0.845,-32.997 0.846,-53.514 0,-8.249 -4.865,-13.325 -12.903,-13.325 C 4.23,-14.383 0,-9.941 0,0"
       style="fill:#ffffff;fill-opacity:1;fill-rule:nonzero;stroke:none"
       transform="matrix(1.3333333,0,0,-1.3333333,4340.078,579.43267)"
       clip-path="url(#clipPath65)" />
    <path
       id="path66"
       d="M 0,0 C -8.038,21.575 -15.229,40.611 -25.17,64.936 -35.746,41.457 -44.63,21.363 -53.725,-0.211 c 9.729,-0.212 19.037,-0.212 26.228,-0.212 7.826,0 18.402,0.212 27.497,0.423 m 13.749,-37.438 c -2.327,6.345 -4.442,12.479 -6.557,18.19 -10.364,0.212 -23.267,0.423 -34.9,0.423 -9.73,0 -23.268,-0.211 -33.843,-0.635 -2.538,-6.133 -5.077,-12.479 -7.615,-19.036 -5.711,-14.383 -10.153,-16.71 -17.768,-16.71 -7.402,0 -10.787,3.807 -10.787,9.095 0,3.808 2.116,9.095 7.403,19.883 19.037,39.342 30.459,63.878 45.688,99.836 4.019,10.364 8.884,13.96 19.671,13.96 12.057,0 16.287,-3.384 19.883,-12.902 16.075,-41.458 24.113,-60.283 41.88,-99.414 6.346,-13.748 7.826,-18.613 7.826,-22.632 0,-5.288 -4.23,-9.73 -13.325,-9.73 -7.826,0 -11.422,2.75 -17.556,19.672"
       style="fill:#ffffff;fill-opacity:1;fill-rule:nonzero;stroke:none"
       transform="matrix(1.3333333,0,0,-1.3333333,4535.2465,522.74613)"
       clip-path="url(#clipPath67)" />
    <path
       id="path68"
       d="m 0,0 c 0,16.287 -11.845,25.805 -41.246,25.805 -8.249,0 -17.767,-0.423 -27.92,-1.48 -0.423,-17.345 -0.635,-31.94 -0.846,-48.438 9.518,-0.423 18.825,-0.846 27.709,-0.846 C -14.383,-24.959 0,-16.287 0,0 m -1.48,-90.529 c -13.326,10.787 -28.556,27.92 -39.978,47.38 -10.152,0 -19.882,0.211 -28.554,0.634 0.211,-15.229 0.423,-25.171 0.423,-38.496 0,-10.788 -4.654,-15.864 -13.326,-15.864 -8.883,0 -13.325,5.076 -13.325,13.326 0,18.825 1.692,35.111 1.692,58.378 0,20.095 -0.423,34.901 -0.423,52.245 0,8.249 3.384,12.691 12.691,14.172 11.845,1.904 31.093,2.75 44.418,2.75 45.688,0 64.725,-17.979 64.725,-42.092 0,-23.267 -17.768,-37.65 -45.053,-42.727 10.999,-14.383 22.42,-25.17 38.496,-33.42 11.21,-5.711 13.114,-10.153 13.114,-14.383 0,-5.922 -6.134,-10.364 -13.326,-10.364 -7.403,0 -15.017,3.173 -21.574,8.461"
       style="fill:#ffffff;fill-opacity:1;fill-rule:nonzero;stroke:none"
       transform="matrix(1.3333333,0,0,-1.3333333,4752.408,465.77747)"
       clip-path="url(#clipPath69)" />
    <path
       id="path70"
       d="m 0,0 c -9.095,5.288 -12.057,9.518 -12.057,16.71 0,7.192 4.654,12.268 11.422,12.268 5.711,0 11.845,-4.019 19.671,-9.941 9.307,-7.192 19.883,-10.576 34.266,-10.576 21.575,0 35.535,8.46 35.535,20.094 0,9.307 -6.557,14.595 -39.765,18.402 C 8.461,51.61 -7.192,65.57 -7.192,88.203 c 0,23.901 21.787,44.418 64.09,44.418 19.671,0 32.997,-3.595 44.207,-10.152 6.134,-3.596 8.038,-8.673 8.038,-12.903 0,-6.346 -4.019,-11.21 -11.633,-11.21 -4.654,0 -9.942,2.326 -16.71,6.768 -6.98,4.654 -15.23,8.038 -25.594,8.038 -23.902,0 -35.112,-10.999 -35.112,-23.056 0,-11.844 8.461,-18.825 36.804,-21.786 43.996,-4.442 58.379,-16.921 58.379,-37.227 0,-27.497 -27.497,-42.938 -60.494,-42.938 C 33.42,-11.845 11.422,-6.769 0,0"
       style="fill:#ffffff;fill-opacity:1;fill-rule:nonzero;stroke:none"
       transform="matrix(1.3333333,0,0,-1.3333333,4166.9161,847.38867)"
       clip-path="url(#clipPath71)" />
    <path
       id="path72"
       d="m 0,0 c 22.632,0 44.418,15.652 44.418,50.341 0,36.804 -18.613,55.629 -44.207,55.629 -28.343,0 -44.841,-22.844 -44.841,-51.398 C -44.63,17.344 -24.113,0 0,0 m 71.493,53.514 c 0,-49.495 -35.535,-73.608 -72.551,-73.608 -37.861,0 -70.435,25.805 -70.435,71.493 0,42.726 26.863,74.031 71.916,74.031 42.515,0 71.07,-28.555 71.07,-71.916"
       style="fill:#ffffff;fill-opacity:1;fill-rule:nonzero;stroke:none"
       transform="matrix(1.3333333,0,0,-1.3333333,4440.2004,836.95387)"
       clip-path="url(#clipPath73)" />
    <path
       id="path74"
       d="m 0,0 c -23.69,0 -32.997,-0.846 -43.361,-0.846 -7.827,0 -12.056,3.173 -12.056,11.21 0,14.172 1.057,31.305 1.057,57.956 0,20.729 -0.846,37.862 -0.846,57.321 0,9.73 4.653,14.383 13.114,14.383 8.461,0 12.903,-4.018 12.903,-13.325 0,-18.402 -0.847,-37.862 -0.847,-57.744 0,-18.191 0.212,-32.151 0.424,-48.649 10.787,-0.423 16.075,-0.423 29.401,-0.423 21.151,0 15.612,1.057 25.553,1.057 8.884,0 12.268,-4.865 12.268,-10.999 0,-6.98 -4.442,-10.787 -13.114,-10.787 C 15.612,-0.846 20.729,0 0,0"
       style="fill:#ffffff;fill-opacity:1;fill-rule:nonzero;stroke:none"
       transform="matrix(1.3333333,0,0,-1.3333333,4644.1067,860.6436)"
       clip-path="url(#clipPath75)" />
    <path
       id="path76"
       d="m 0,0 c -19.683,0 -35.64,-15.956 -35.64,-35.64 0,-12.308 6.239,-23.158 15.727,-29.562 L -44,-150.38 -6.097,-70.75 c 1.982,-0.341 4.017,-0.53 6.097,-0.53 19.683,0 35.64,15.957 35.64,35.64 C 35.64,-15.956 19.683,0 0,0"
       style="fill:#ff5a6e;fill-opacity:1;fill-rule:nonzero;stroke:none"
       transform="matrix(1.3333333,0,0,-1.3333333,4801.6393,657.45267)"
       clip-path="url(#clipPath77)" />
    <path
       id="path78"
       d="m 0,0 c -0.436,0 -0.876,0.125 -1.265,0.387 -1.039,0.7 -1.313,2.109 -0.613,3.148 6.55,9.72 15.42,12.315 25.645,7.504 C 24.9,10.506 25.387,9.156 24.854,8.022 24.321,6.889 22.97,6.403 21.837,6.936 13.683,10.771 7.157,8.829 1.882,1 1.444,0.351 0.729,0 0,0"
       style="fill:#ffffff;fill-opacity:1;fill-rule:nonzero;stroke:none"
       transform="matrix(1.3333333,0,0,-1.3333333,4780.09,688.83773)"
       clip-path="url(#clipPath79)" />
    <path
       id="path80"
       d="m 0,0 v -0.928 l 0.071,0.071 C 2,-1.428 5.355,-1.928 8.641,-1.928 c 9.14,0 11.64,5.141 11.64,11.069 0,5.927 -2.5,11.14 -11.64,11.14 -3.286,0 -6.641,-0.572 -8.57,-1.143 z m 8.355,25.351 c 13.497,0 18.709,-6.784 18.709,-16.21 0,-9.427 -5.212,-16.211 -18.709,-16.211 -2.642,0 -5.713,0.143 -8.355,0.571 v -16.924 c 0,-3.071 -0.357,-3.356 -3.571,-3.356 -2.642,0 -2.785,0.357 -2.785,3.57 v 44.775 c 0,2.856 8.641,3.785 14.711,3.785"
       style="fill:#ffffff;fill-opacity:1;fill-rule:nonzero;stroke:none"
       transform="matrix(1.3333333,0,0,-1.3333333,4166.6467,974.50467)"
       clip-path="url(#clipPath81)" />
    <path
       id="path82"
       d="m 0,0 v -0.928 c 1.856,-0.786 5.427,-1.428 8.569,-1.428 9.355,0 11.926,5.284 11.926,11.425 0,6.141 -2.499,11.426 -11.783,11.426 C 5.427,20.495 2,19.852 0.071,19.067 Z M 10.783,-7.141 H 8.784 C 5.927,-7.141 2.785,-6.855 0,-6.07 v -17.424 c 0,-3 -0.357,-3.357 -3.356,-3.357 -2.786,0 -2.928,0.286 -2.928,3.499 v 44.133 c 0,2.927 8.784,4.499 14.925,4.499 13.425,0 18.567,-6.784 18.567,-16.211 0,-7.712 -3.428,-12.997 -10.355,-15.139 l 10.426,-17.71 c 0.429,-0.857 0.714,-1.5 0.714,-1.999 0,-0.715 -0.642,-1.072 -2.356,-1.072 -3.642,0 -4.214,0.643 -4.785,1.786 z"
       style="fill:#ffffff;fill-opacity:1;fill-rule:nonzero;stroke:none"
       transform="matrix(1.3333333,0,0,-1.3333333,4230.6239,974.40973)"
       clip-path="url(#clipPath83)" />
    <path
       id="path84"
       d="m 0,0 c 0,17.21 -7.07,20.995 -15.282,20.995 -8.141,0 -15.21,-3.785 -15.21,-20.995 0,-16.996 6.927,-21.923 15.21,-21.923 C -6.998,-21.923 0,-17.067 0,0 m -15.282,26.136 c 11.355,0 22.137,-4.855 22.137,-25.922 0,-20.78 -10.64,-26.922 -22.137,-26.922 -11.426,0 -22.137,6.142 -22.137,26.922 0,21.067 10.854,25.922 22.137,25.922"
       style="fill:#ffffff;fill-opacity:1;fill-rule:nonzero;stroke:none"
       transform="matrix(1.3333333,0,0,-1.3333333,4336.4943,975.55227)"
       clip-path="url(#clipPath85)" />
    <path
       id="path86"
       d="m 0,0 v -0.928 l 0.071,0.071 c 1.928,-0.571 5.284,-1.071 8.57,-1.071 9.14,0 11.639,5.141 11.639,11.069 0,5.927 -2.499,11.14 -11.639,11.14 -3.286,0 -6.642,-0.572 -8.57,-1.143 z m 8.355,25.351 c 13.497,0 18.709,-6.784 18.709,-16.21 0,-9.427 -5.212,-16.211 -18.709,-16.211 -2.642,0 -5.713,0.143 -8.355,0.571 v -16.924 c 0,-3.071 -0.357,-3.356 -3.571,-3.356 -2.642,0 -2.785,0.357 -2.785,3.57 v 44.775 c 0,2.856 8.641,3.785 14.711,3.785"
       style="fill:#ffffff;fill-opacity:1;fill-rule:nonzero;stroke:none"
       transform="matrix(1.3333333,0,0,-1.3333333,4375.8088,974.50467)"
       clip-path="url(#clipPath87)" />
    <path
       id="path88"
       d="m 0,0 v -24.065 c 0,-3.214 -0.428,-3.428 -3.785,-3.428 -2.499,0 -2.642,0.428 -2.642,3.642 V 0 c 0,5.07 -0.214,19.067 -0.214,21.638 0,2.142 0.072,2.285 3.785,2.285 2.856,0 2.999,-0.071 2.999,-3.285 C 0.143,13.568 0,7.213 0,0"
       style="fill:#ffffff;fill-opacity:1;fill-rule:nonzero;stroke:none"
       transform="matrix(1.3333333,0,0,-1.3333333,4440.2619,973.55293)"
       clip-path="url(#clipPath89)" />
    <path
       id="path90"
       d="m 0,0 c -2.499,0 -2.642,0.428 -2.642,3.642 v 23.851 c 0,4.928 -0.214,19.067 -0.214,21.638 0,2.214 0.071,2.285 3.785,2.285 h 24.565 c 1.5,0 2.071,-0.428 1.857,-2.142 L 27.208,47.988 C 26.994,46.489 26.137,46.274 25.137,46.274 H 3.928 C 3.856,40.49 3.785,34.92 3.785,29.064 h 20.567 c 1.499,0 1.999,-0.428 1.856,-2.142 l -0.143,-1.285 c -0.214,-1.5 -1.142,-1.714 -2.071,-1.714 H 3.785 V 5.142 h 21.709 c 1.642,0 2.071,-0.357 1.857,-2.143 L 27.208,1.714 C 26.994,0.143 26.137,0 25.137,0 Z"
       style="fill:#ffffff;fill-opacity:1;fill-rule:nonzero;stroke:none"
       transform="matrix(1.3333333,0,0,-1.3333333,4468.3452,1010.2104)"
       clip-path="url(#clipPath91)" />
    <path
       id="path92"
       d="m 0,0 v -22.423 c 2.143,-0.571 6.57,-1.142 9.498,-1.142 10.997,0 16.424,7.141 16.424,21.565 0,14.426 -5.498,21.424 -16.567,21.424 -3,0 -7.141,-0.571 -9.212,-1.285 C 0.071,11.926 0,6.855 0,0 M -6.355,-24.851 V 0 c 0,4.642 -0.215,17.924 -0.215,19.924 0,3.285 10.64,4.427 16.353,4.427 15.14,0 22.852,-8.212 22.852,-26.351 0,-18.209 -7.784,-26.493 -23.423,-26.493 -4.713,0 -15.567,0.714 -15.567,3.642"
       style="fill:#ffffff;fill-opacity:1;fill-rule:nonzero;stroke:none"
       transform="matrix(1.3333333,0,0,-1.3333333,4535.8452,973.172)"
       clip-path="url(#clipPath93)" />
    <path
       id="path94"
       d="M 0,0 H 21.994 C 18.353,14.782 11.426,24.137 10.997,24.137 10.568,24.137 3.57,14.854 0,0 M 22.994,-4.999 H -1.071 c -0.715,-3.928 -1.072,-8.069 -1.072,-12.497 0,-2.999 -0.142,-3.213 -3.356,-3.213 -2.713,0 -3.07,0.143 -3.07,3.356 0,22.352 8.854,37.562 15.71,46.346 1.285,1.499 1.857,1.714 3.785,1.714 1.856,0 2.571,-0.143 3.856,-1.785 6.855,-8.784 15.781,-23.995 15.781,-46.275 0,-3.213 -0.356,-3.356 -3.499,-3.356 -2.856,0 -2.856,0.143 -2.927,3.213 0,4.428 -0.429,8.569 -1.143,12.497"
       style="fill:#ffffff;fill-opacity:1;fill-rule:nonzero;stroke:none"
       transform="matrix(1.3333333,0,0,-1.3333333,4609.8192,982.59813)"
       clip-path="url(#clipPath95)" />
    <path
       id="path96"
       d="m 0,0 v -22.423 c 2.143,-0.571 6.57,-1.142 9.498,-1.142 10.997,0 16.424,7.141 16.424,21.565 0,14.426 -5.498,21.424 -16.567,21.424 -2.999,0 -7.141,-0.571 -9.212,-1.285 C 0.072,11.926 0,6.855 0,0 M -6.355,-24.851 V 0 c 0,4.642 -0.215,17.924 -0.215,19.924 0,3.285 10.641,4.427 16.354,4.427 15.138,0 22.851,-8.212 22.851,-26.351 0,-18.209 -7.784,-26.493 -23.423,-26.493 -4.713,0 -15.567,0.714 -15.567,3.642"
       style="fill:#ffffff;fill-opacity:1;fill-rule:nonzero;stroke:none"
       transform="matrix(1.3333333,0,0,-1.3333333,4681.8875,973.172)"
       clip-path="url(#clipPath97)" />
    <path
       id="path98"
       d="m 0,0 c -2.5,0 -2.642,0.428 -2.642,3.642 v 23.851 c 0,4.928 -0.214,19.067 -0.214,21.638 0,2.214 0.071,2.285 3.784,2.285 h 24.566 c 1.5,0 2.071,-0.428 1.857,-2.142 L 27.208,47.988 C 26.994,46.489 26.137,46.274 25.137,46.274 H 3.928 C 3.856,40.49 3.785,34.92 3.785,29.064 h 20.566 c 1.5,0 2,-0.428 1.857,-2.142 l -0.143,-1.285 c -0.214,-1.5 -1.143,-1.714 -2.071,-1.714 H 3.785 V 5.142 h 21.709 c 1.642,0 2.071,-0.357 1.857,-2.143 L 27.208,1.714 C 26.994,0.143 26.137,0 25.137,0 Z"
       style="fill:#ffffff;fill-opacity:1;fill-rule:nonzero;stroke:none"
       transform="matrix(1.3333333,0,0,-1.3333333,4750.8147,1010.2104)"
       clip-path="url(#clipPath99)" />
    <path
       id="path100"
       d="m 0,0 c 0,14.354 -24.137,6.141 -24.137,25.065 0,11.712 9.212,13.64 16.496,13.64 5.427,0 9.069,-1.214 11.069,-1.928 1.357,-0.5 2.071,-1 1.571,-2.428 L 4.285,32.492 C 3.856,31.421 3.356,31.421 1.785,31.921 0.643,32.349 -2.5,33.42 -7.212,33.42 c -6.142,0 -10.641,-1.856 -10.641,-7.998 0,-13.711 24.137,-6.069 24.137,-24.922 0,-12.211 -10.14,-14.639 -17.067,-14.639 -5.713,0 -10.855,1.428 -13.14,2.356 -1.357,0.572 -1.999,1.071 -1.499,2.5 l 0.428,1.285 c 0.5,1.428 0.714,1.785 2.499,1.285 2.429,-0.714 7.356,-2.285 11.855,-2.285 C -5.927,-8.998 0,-7.284 0,0"
       style="fill:#ffffff;fill-opacity:1;fill-rule:nonzero;stroke:none"
       transform="matrix(1.3333333,0,0,-1.3333333,4838.0243,992.31)"
       clip-path="url(#clipPath101)" />
  </g>
</svg>
